<svg width="200" height="200" viewBox="0 0 200 200" fill="none" xmlns="http://www.w3.org/2000/svg">
<path d="M133.323 74.6654C133.323 76.0109 132.287 77.1017 131.009 77.1017C129.731 77.1017 128.694 76.0109 128.694 74.6654C128.694 73.3198 129.731 72.229 131.009 72.229C132.287 72.229 133.323 73.3198 133.323 74.6654Z" fill="url(#paint0_linear_14_8361)"/>
<path d="M140.267 77.1017C141.545 77.1017 142.581 76.0109 142.581 74.6654C142.581 73.3198 141.545 72.229 140.267 72.229C138.989 72.229 137.952 73.3198 137.952 74.6654C137.952 76.0109 138.989 77.1017 140.267 77.1017Z" fill="url(#paint1_linear_14_8361)"/>
<path d="M149.525 77.1017C150.803 77.1017 151.839 76.0109 151.839 74.6654C151.839 73.3198 150.803 72.229 149.525 72.229C148.247 72.229 147.21 73.3198 147.21 74.6654C147.21 76.0109 148.247 77.1017 149.525 77.1017Z" fill="url(#paint2_linear_14_8361)"/>
<path fill-rule="evenodd" clip-rule="evenodd" d="M90.753 40.2862C90.7085 40.2503 90.6639 40.2145 90.6193 40.1788L90.6636 40.1211C82.0579 33.6673 74.1967 30 61.7138 30L61.6359 30.0001L61.5605 30C59.5794 30 57.6272 30.1237 55.7113 30.3639C45.8817 31.5719 37.3601 35.7154 30.6897 41.7047C21.0659 50.2346 15 62.6892 15 76.5605L15.0003 76.7291C14.9732 84.2998 16.7967 92.0376 20.7875 99.3076L59.1589 169.298C60.2417 171.273 63.0861 171.247 64.1386 169.256C76.0438 146.713 84.9403 131.015 91.5055 119.431L91.5062 119.43C95.1596 112.983 100.418 103.441 100.418 103.441L136.142 158.117C137.216 160.077 140.025 160.077 141.099 158.117L179.209 99.3076C183.061 92.3077 185 84.5357 185 76.7637L185 76.6625L185 76.5605C185 58.8016 175.058 43.3648 160.435 35.5129C153.885 31.9954 146.395 30 138.439 30L138.375 30L138.31 30C121.776 30 108.428 38.5349 100.256 49.4324C100.292 49.484 100.328 49.5357 100.364 49.5875C94.0355 58.288 90.9795 68.4034 92.1884 76.8627C92.1069 76.9447 92.1081 77.2306 92.1103 77.7313C92.1153 78.8584 92.1251 81.0737 91.2061 84.5016C88.0996 96.4809 77.8097 105.551 65.1986 106.793L63.585 113.691C63.3807 114.565 62.507 115.107 61.6335 114.903L59.5248 114.41C58.6514 114.205 58.1089 113.332 58.3133 112.458L59.6306 106.826C58.5362 106.732 57.4586 106.579 56.4011 106.369L54.994 112.385C54.7897 113.258 53.916 113.801 53.0425 113.597L50.9338 113.103C50.0604 112.899 49.518 112.025 49.7223 111.152L51.1999 104.835C39.1017 100.023 30.8835 87.5287 32.5367 73.3542C34.1525 59.5041 45.5282 48.3969 59.3866 47.1301C60.8582 46.9954 62.3677 47.0504 63.8735 47.243L65.2902 41.1863C65.4945 40.3129 66.3682 39.7704 67.2417 39.9748L69.3503 40.468C70.2238 40.6723 70.7662 41.546 70.5619 42.4195L69.1569 48.4261C70.2184 48.7557 71.251 49.1266 72.2379 49.518L73.7252 43.1596C73.9295 42.2862 74.8032 41.7437 75.6766 41.948L77.7853 42.4413C78.6588 42.6456 79.2012 43.5193 78.9969 44.3927L77.2573 51.8298C79.9048 53.2154 81.5929 54.3629 81.5929 54.3629C81.5929 54.3629 87.0918 45.2021 90.753 40.2862ZM100.858 103.285C100.813 103.221 100.769 103.158 100.725 103.095C100.666 103.176 100.607 103.257 100.547 103.337L100.541 103.338C106.932 94.4488 110.394 83.6343 109.161 75.023C109.244 74.9388 109.243 74.6456 109.24 74.1323C109.235 72.9737 109.224 70.6935 110.173 67.164C113.626 53.8814 125.683 44.0763 140.071 44.0763C158.339 44.0763 172.892 59.9347 170.706 78.6324C169.039 92.8838 157.301 104.312 143.004 105.616C132.486 106.576 126.594 103.708 119.052 96.9511C115.352 99.7796 108.483 101.977 100.858 103.285Z" fill="url(#paint3_linear_14_8361)"/>
<path d="M69.2075 86.4954C67.3551 87.7273 65.1889 88.4036 62.9647 88.4445C60.7404 88.4855 58.5508 87.8894 56.6543 86.7266C54.7577 85.5637 53.2334 83.8827 52.261 81.8818C51.2887 79.8809 50.909 77.6436 51.1667 75.434C51.4244 73.2243 52.3087 71.1344 53.7154 69.411C55.1221 67.6875 56.9923 66.4023 59.1056 65.7071C61.2188 65.0119 63.4868 64.9356 65.6419 65.4873C67.7971 66.039 69.7495 67.1957 71.2687 68.8207L73.8236 66.4322C73.3268 65.9008 72.7944 65.4079 72.2311 64.9564C70.5552 63.6131 68.606 62.6358 66.5093 62.0991C63.7078 61.3819 60.7596 61.4811 58.0126 62.3848C55.2656 63.2885 52.8344 64.9591 51.0058 67.1995C49.1773 69.4398 48.0277 72.1564 47.6927 75.0288C47.3577 77.9012 47.8513 80.8095 49.1153 83.4105C50.3792 86.0115 52.3608 88.1967 54.8261 89.7083C57.2915 91.2198 60.1377 91.9947 63.0291 91.9415C65.1931 91.9016 67.3148 91.3991 69.2549 90.4774C69.9055 90.1683 70.5358 89.812 71.1404 89.4103L71.1442 89.4077L69.2075 86.4954Z" fill="url(#paint4_linear_14_8361)"/>
<defs>
<linearGradient id="paint0_linear_14_8361" x1="0.34483" y1="19.172" x2="209.373" y2="69.467" gradientUnits="userSpaceOnUse">
<stop stop-color="#75AEFE"/>
<stop offset="0.39375" stop-color="#6C68CB"/>
<stop offset="1" stop-color="#7258B3"/>
</linearGradient>
<linearGradient id="paint1_linear_14_8361" x1="0.34483" y1="19.172" x2="209.373" y2="69.467" gradientUnits="userSpaceOnUse">
<stop stop-color="#75AEFE"/>
<stop offset="0.39375" stop-color="#6C68CB"/>
<stop offset="1" stop-color="#7258B3"/>
</linearGradient>
<linearGradient id="paint2_linear_14_8361" x1="0.34483" y1="19.172" x2="209.373" y2="69.467" gradientUnits="userSpaceOnUse">
<stop stop-color="#75AEFE"/>
<stop offset="0.39375" stop-color="#6C68CB"/>
<stop offset="1" stop-color="#7258B3"/>
</linearGradient>
<linearGradient id="paint3_linear_14_8361" x1="0.34483" y1="19.172" x2="209.373" y2="69.467" gradientUnits="userSpaceOnUse">
<stop stop-color="#75AEFE"/>
<stop offset="0.39375" stop-color="#6C68CB"/>
<stop offset="1" stop-color="#7258B3"/>
</linearGradient>
<linearGradient id="paint4_linear_14_8361" x1="0.34483" y1="19.172" x2="209.373" y2="69.467" gradientUnits="userSpaceOnUse">
<stop stop-color="#75AEFE"/>
<stop offset="0.39375" stop-color="#6C68CB"/>
<stop offset="1" stop-color="#7258B3"/>
</linearGradient>
</defs>
</svg>
