<svg width="200" height="200" viewBox="0 0 200 200" fill="none" xmlns="http://www.w3.org/2000/svg">
<rect width="200" height="200" fill="url(#paint0_linear_14_8364)"/>
<path d="M123.522 81.4199C123.522 82.3665 122.791 83.1338 121.889 83.1338C120.986 83.1338 120.255 82.3665 120.255 81.4199C120.255 80.4734 120.986 79.7061 121.889 79.7061C122.791 79.7061 123.522 80.4734 123.522 81.4199Z" fill="white"/>
<path d="M128.424 83.1338C129.326 83.1338 130.057 82.3665 130.057 81.4199C130.057 80.4734 129.326 79.7061 128.424 79.7061C127.521 79.7061 126.79 80.4734 126.79 81.4199C126.79 82.3665 127.521 83.1338 128.424 83.1338Z" fill="white"/>
<path d="M134.959 83.1338C135.861 83.1338 136.592 82.3665 136.592 81.4199C136.592 80.4734 135.861 79.7061 134.959 79.7061C134.056 79.7061 133.325 80.4734 133.325 81.4199C133.325 82.3665 134.056 83.1338 134.959 83.1338Z" fill="white"/>
<path fill-rule="evenodd" clip-rule="evenodd" d="M93.4727 57.2358C93.4413 57.2106 93.4098 57.1854 93.3783 57.1603L93.4096 57.1197C87.335 52.5798 81.7859 50 72.9744 50L72.9195 50L72.8662 50C71.4678 50 70.0898 50.087 68.7374 50.256C61.7989 51.1058 55.7836 54.0205 51.0751 58.2337C44.2818 64.2341 40 72.9953 40 82.7531L40.0002 82.8717C39.9811 88.1973 41.2682 93.6405 44.0853 98.7546L71.171 147.989C71.9353 149.379 73.9431 149.36 74.686 147.96C83.0898 132.102 89.3696 121.059 94.0039 112.911L94.0044 112.91C96.5833 108.375 100.295 101.662 100.295 101.662L125.512 140.124C126.27 141.503 128.253 141.503 129.011 140.124L155.913 98.7546C158.632 93.8305 160 88.3632 160 82.896L160 82.8248L160 82.7531C160 70.2605 152.982 59.4015 142.66 53.8781C138.036 51.4036 132.75 50 127.134 50L127.088 50L127.042 50C115.371 50 105.949 56.0039 100.18 63.6697C100.206 63.7061 100.231 63.7425 100.257 63.7789C95.7897 69.8993 93.6326 77.0149 94.4859 82.9657C94.4284 83.0234 94.4293 83.2245 94.4308 83.5767C94.4343 84.3695 94.4412 85.9279 93.7925 88.3393C91.5997 96.7662 84.3363 103.146 75.4343 104.02L74.2953 108.873C74.1511 109.487 73.5343 109.869 72.9178 109.725L71.4293 109.378C70.8127 109.234 70.4298 108.62 70.5741 108.005L71.5039 104.044C70.7314 103.977 69.9708 103.869 69.2243 103.722L68.231 107.954C68.0868 108.568 67.4701 108.95 66.8536 108.806L65.3651 108.459C64.7485 108.315 64.3656 107.701 64.5098 107.086L65.5529 102.643C57.013 99.2578 51.2119 90.4687 52.3789 80.4976C53.5194 70.7547 61.5494 62.9413 71.3317 62.0502C72.3705 61.9555 73.436 61.9942 74.4989 62.1297L75.499 57.8691C75.6432 57.2546 76.2599 56.873 76.8765 57.0168L78.3649 57.3637C78.9815 57.5075 79.3644 58.1221 79.2202 58.7365L78.2284 62.9619C78.9777 63.1937 79.7066 63.4546 80.4032 63.73L81.4531 59.2571C81.5973 58.6427 82.214 58.2611 82.8306 58.4049L84.319 58.7518C84.9356 58.8956 85.3185 59.5102 85.1743 60.1246L83.9463 65.3563C85.8152 66.3309 87.0068 67.1381 87.0068 67.1381C87.0068 67.1381 90.8883 60.6939 93.4727 57.2358ZM100.606 101.552C100.574 101.508 100.543 101.463 100.512 101.419C100.47 101.476 100.428 101.532 100.386 101.589L100.382 101.59C104.893 95.3367 107.337 87.7292 106.466 81.6715C106.525 81.6123 106.524 81.4061 106.523 81.045C106.519 80.2299 106.511 78.6259 107.181 76.1431C109.618 66.7994 118.129 59.902 128.285 59.902C141.18 59.902 151.453 71.0576 149.91 84.2106C148.733 94.2358 140.448 102.275 130.356 103.192C122.931 103.867 118.772 101.85 113.448 97.0969C110.837 99.0866 105.988 100.632 100.606 101.552Z" fill="white"/>
<path d="M78.2641 89.7418C76.9565 90.6084 75.4275 91.0841 73.8574 91.1129C72.2873 91.1418 70.7418 90.7224 69.403 89.9044C68.0643 89.0864 66.9883 87.9039 66.3019 86.4964C65.6156 85.0888 65.3475 83.515 65.5294 81.9606C65.7113 80.4062 66.3356 78.9361 67.3285 77.7237C68.3214 76.5114 69.6416 75.6073 71.1333 75.1183C72.625 74.6292 74.2259 74.5756 75.7472 74.9636C77.2685 75.3517 78.6467 76.1654 79.7191 77.3085L81.5225 75.6283C81.1719 75.2545 80.796 74.9078 80.3984 74.5902C79.2154 73.6452 77.8396 72.9578 76.3595 72.5802C74.3819 72.0757 72.3009 72.1454 70.3618 72.7811C68.4227 73.4169 66.7066 74.5921 65.4159 76.168C64.1251 77.744 63.3137 79.655 63.0772 81.6756C62.8408 83.6962 63.1892 85.742 64.0814 87.5717C64.9736 89.4014 66.3723 90.9386 68.1125 92.0019C69.8528 93.0652 71.8619 93.6103 73.9029 93.5729C75.4304 93.5448 76.9281 93.1913 78.2975 92.543C78.7569 92.3255 79.2017 92.0749 79.6285 91.7923L79.6312 91.7905L78.2641 89.7418Z" fill="white"/>
<defs>
<linearGradient id="paint0_linear_14_8364" x1="-17.2414" y1="-15.3846" x2="232.98" y2="34.4678" gradientUnits="userSpaceOnUse">
<stop stop-color="#75AEFE"/>
<stop offset="0.39375" stop-color="#6C68CB"/>
<stop offset="1" stop-color="#7258B3"/>
</linearGradient>
</defs>
</svg>
